PathFileType	4	(X/Y/Z)	OpenSim_Sub01_CSStiffKnee_Gyro.trc
DataRate	CameraRate	NumFrames	NumMarkers	Units	OrigDataRate	OrigDataStartFrame	OrigNumFrames
100	100	30	8	m	100	2018	5381
Frame#	Time	torso_imu_offset_imu	pelvis_imu_offset_imu	tibia_r_imu_offset_imu	femur_r_imu_offset_imu	tibia_l_imu_offset_imu	femur_l_imu_offset_imu	toes_r_imu_offset_imu	toes_l_imu_offset_imu
				X1	Y1	Z1	X2	Y2	Z2	X3	Y3	Z3	X4	Y4	Z4	X5	Y5	Z5	X6	Y6	Z6	X7	Y7	Z7	X8		Y8	Z8	

2018	20.17000000	0.18895899	0.31062768	0.25473247	0.40050766	0.43946149	0.10863816	1.25730276	-0.47753125	-1.36905598	-0.68953579	-0.11323668	-0.57519746	0.58782574	0.34880454	1.54742598	0.77219399	-0.11471559	0.28784865	1.61230893	-2.36866066	-0.87351481	0.06226334	-2.33522496	-0.12410916
2019	20.18000000	0.09992893	0.31124904	0.25908788	0.22134898	0.41062855	0.18525737	2.21393120	-0.28646054	-1.32524015	-0.60636001	0.20412150	-0.21729847	0.77480501	0.39923973	1.58153809	0.63045995	-0.07555036	0.24292519	1.76413917	-1.79971082	-0.79401591	0.08034292	-2.70260270	-0.17115940
2020	20.19000000	-0.01252498	0.33276400	0.24375988	0.09810622	0.25743412	0.23276760	2.43932070	-0.28730893	-1.45181414	0.24027427	0.08130556	0.03580261	0.91056322	0.44218544	1.60990315	0.51556990	0.03450125	0.21481393	1.42112529	-1.34376376	-0.62424797	0.05674122	-3.12239424	-0.16468865
2021	20.20000000	-0.12683243	0.36953991	0.20621994	0.05520689	0.03095609	0.23992902	1.95598708	-0.44698945	-1.64915071	1.53618981	-0.31078971	0.04801138	0.96415914	0.48223570	1.62244332	0.45724758	0.18419209	0.19547284	0.79868419	-1.03620804	-0.41326565	-0.00212932	-3.53350059	-0.11353803
2022	20.21000000	-0.21785377	0.40021846	0.15165901	0.09946733	-0.18151884	0.19728734	1.21706167	-0.61183026	-1.70705069	2.45218910	-0.51366036	-0.24270440	0.93217135	0.53058530	1.60268994	0.46985531	0.29721244	0.16131496	0.32374236	-0.81422535	-0.26299232	-0.06908434	-3.84364876	-0.04222334
2023	20.22000000	-0.26649969	0.41191908	0.09007866	0.21954304	-0.31665167	0.10823756	0.57598316	-0.68227802	-1.52969576	2.49138531	-0.30531365	-0.79249068	0.81745831	0.58588027	1.54847596	0.55224289	0.33482296	0.10108654	0.23275187	-0.63243504	-0.22587652	-0.13950445	-3.99496468	0.04161231
2024	20.23000000	-0.26728384	0.41113086	0.04199163	0.36407563	-0.36558140	0.00479328	0.15133082	-0.68300985	-1.27967070	1.91321839	0.00022892	-1.32336857	0.63609695	0.61857679	1.48972937	0.66909051	0.34341346	0.03150095	0.33106568	-0.48719675	-0.24245056	-0.25971772	-4.00722644	0.16842548
2025	20.24000000	-0.21793367	0.40619400	0.02753165	0.47966874	-0.32852051	-0.07864862	0.01847001	-0.65294766	-1.13655114	1.07402007	0.05325285	-1.55443676	0.40564915	0.59900915	1.45679268	0.78116752	0.37473522	-0.02818589	0.38398158	-0.38006216	-0.24344539	-0.46676415	-3.89645211	0.36336334
2026	20.25000000	-0.13035332	0.39750238	0.04823706	0.54778042	-0.22325474	-0.12306294	0.13470666	-0.60453943	-1.09436846	0.27391849	-0.11570439	-1.50166205	0.14054286	0.53563101	1.43945580	0.85659903	0.41697645	-0.07153538	0.34546578	-0.30787899	-0.21473690	-0.63063108	-3.53137422	0.54354127
2027	20.26000000	-0.02478885	0.38076524	0.09466792	0.57045644	-0.07794522	-0.11856204	0.38768304	-0.53465896	-1.03795966	-0.22084575	-0.25230236	-1.35586643	-0.14636597	0.45930625	1.40338647	0.86791458	0.42093245	-0.09964470	0.28067495	-0.26471951	-0.17470601	-0.52354446	-2.69470280	0.56274800
2028	20.27000000	0.08298757	0.35231783	0.15555008	0.55541513	0.07739238	-0.07002030	0.66097645	-0.44930961	-0.90729470	-0.29931722	-0.21067037	-1.25054794	-0.38354778	0.38462960	1.27189794	0.80146515	0.35936278	-0.10825029	0.23208462	-0.24454567	-0.13632147	-0.08408992	-1.35207046	0.36008262
2029	20.28000000	0.18742679	0.31002739	0.21583325	0.52243817	0.20890364	-0.01498656	0.83110315	-0.37531435	-0.76850893	-0.19604597	-0.09341692	-1.18625696	-0.36851117	0.28924868	0.87449489	0.67431398	0.25511359	-0.08090999	0.18835617	-0.24115324	-0.09953851	0.37513456	0.12026023	0.06682075
2030	20.29000000	0.28447960	0.25259298	0.26091801	0.49236533	0.28491200	0.00725084	0.78710946	-0.33872993	-0.69743758	-0.17059122	-0.02590085	-1.14592460	0.08110791	0.14896210	0.06435086	0.50995051	0.13811393	-0.00350791	0.13271361	-0.24828123	-0.06283590	0.52629881	1.32336275	-0.16961844
2031	20.30000000	0.37130165	0.18516151	0.28613386	0.48010950	0.30158613	-0.01491282	0.55726044	-0.32862102	-0.69381871	-0.25807691	-0.02125753	-1.11629594	0.75695231	-0.02790969	-0.92997559	0.35530528	0.04145028	0.09704474	0.06741859	-0.25931443	-0.02762770	0.40676155	2.19792644	-0.30359874
2032	20.31000000	0.44576728	0.11667218	0.29267608	0.49704665	0.27153322	-0.07672700	0.25188164	-0.31230678	-0.71255593	-0.36135799	-0.02652727	-1.08641767	1.22119554	-0.21386855	-1.65948775	0.27095396	-0.00001650	0.16969933	0.00595239	-0.26744457	0.00294010	0.26887983	2.88466226	-0.34949703
2033	20.32000000	0.50741931	0.05366186	0.28355764	0.54595977	0.20997945	-0.16827017	-0.03271852	-0.27331549	-0.72042810	-0.41036553	-0.01137092	-1.05629945	1.25249665	-0.38294353	-1.88833045	0.27868939	0.02986772	0.17716538	-0.04050185	-0.26923959	0.02565301	0.27376391	3.45617134	-0.31539722
2034	20.33000000	0.55950280	-0.00280221	0.26567815	0.61056055	0.13752051	-0.26855462	-0.23387406	-0.23196950	-0.71200389	-0.39925907	0.00217211	-1.05034596	1.11916970	-0.51312446	-1.86258164	0.31337583	0.10546622	0.11354661	-0.06621245	-0.26880615	0.03719352	0.37272771	3.82731512	-0.19361109
2035	20.34000000	0.60550734	-0.05250250	0.24631403	0.67285931	0.07419957	-0.35619511	-0.29885735	-0.21132029	-0.68639017	-0.33211882	-0.01173276	-1.09147659	1.12566653	-0.58605015	-1.86909113	0.30522651	0.19655233	-0.02108603	-0.06717162	-0.27048720	0.03482335	0.49167693	3.90529874	0.01981661
2036	20.35000000	0.64627590	-0.09635330	0.23120309	0.72394172	0.02685511	-0.42115995	-0.23054639	-0.21119830	-0.65072568	-0.22572391	-0.04493473	-1.15320115	1.26553575	-0.61549772	-1.94243251	0.25786548	0.28389034	-0.20891135	-0.04955401	-0.27053492	0.02192797	0.58726694	3.73862569	0.26827266
2037	20.36000000	0.68108956	-0.13593378	0.22516608	0.76026015	-0.00545554	-0.46013004	-0.06469616	-0.21775820	-0.61687159	-0.10433176	-0.06928007	-1.18001213	1.34928830	-0.63410959	-1.96861639	0.21814905	0.35476450	-0.42165893	-0.02552430	-0.26045031	0.00549123	0.63433712	3.45898729	0.45956134
2038	20.37000000	0.70911279	-0.17223014	0.23103466	0.78103110	-0.02189422	-0.47295236	0.14713287	-0.22194344	-0.59337316	0.01055241	-0.06624626	-1.14393465	1.26531761	-0.65473206	-1.88821178	0.21733995	0.40414781	-0.63568947	-0.00372037	-0.23632097	-0.01047892	0.61714928	3.16296677	0.53274773
2039	20.38000000	0.72929485	-0.20488635	0.24722876	0.79148383	-0.01742475	-0.46634479	0.31906188	-0.22577697	-0.58124073	0.10377993	-0.03937732	-1.07926346	1.08107248	-0.64549671	-1.76780661	0.25066072	0.44398097	-0.83799822	0.01526193	-0.20460555	-0.02871828	0.54046473	2.86641290	0.49767445
2040	20.39000000	0.74084731	-0.23335151	0.27138850	0.79681069	0.01220244	-0.44753731	0.36964265	-0.23191797	-0.58000413	0.16292366	0.00386843	-1.02550322	0.88129842	-0.57351416	-1.68506312	0.30765325	0.48697458	-1.01747207	0.03171244	-0.17286763	-0.05236315	0.41252177	2.57486563	0.37476129
2041	20.40000000	0.74599045	-0.25693820	0.29926616	0.79342417	0.05725270	-0.41944918	0.31110392	-0.23411731	-0.58443411	0.19477321	0.04644722	-0.98896248	0.67919209	-0.45781456	-1.65594055	0.36955796	0.53008605	-1.16767172	0.04383091	-0.14559069	-0.07926431	0.24881860	2.30021491	0.19475752
2042	20.41000000	0.74870674	-0.27488160	0.32550622	0.77257358	0.09977234	-0.38246242	0.21085708	-0.22091630	-0.58651127	0.21741930	0.06572550	-0.95639073	0.44581303	-0.34796192	-1.66004195	0.41277689	0.56100433	-1.28492917	0.04859523	-0.12543385	-0.10416347	0.06917203	2.05808190	-0.00556417
2043	20.42000000	0.75028031	-0.28709174	0.34599323	0.72893346	0.12824956	-0.33815848	0.11969807	-0.19050801	-0.58188236	0.24151847	0.05281622	-0.91956350	0.16713134	-0.27360367	-1.68608627	0.42617520	0.57260768	-1.36858052	0.04534008	-0.11348776	-0.12369662	-0.09898953	1.86096552	-0.20426471
2044	20.43000000	0.74592383	-0.29498656	0.35941059	0.66496987	0.14578312	-0.29086829	0.04975791	-0.16277142	-0.57445477	0.26081373	0.02966559	-0.88203481	-0.13639830	-0.21906738	-1.74418102	0.42656620	0.56962043	-1.42458495	0.03869400	-0.10739596	-0.13881612	-0.21137880	1.71429052	-0.41267653
2045	20.44000000	0.73058246	-0.29998153	0.36487114	0.58484926	0.15733516	-0.24517991	0.00654142	-0.15815425	-0.56897192	0.26706654	0.02011177	-0.84899373	-0.43705063	-0.16497076	-1.84475764	0.43180486	0.55825284	-1.45878164	0.03359860	-0.10420939	-0.15084794	-0.22746119	1.62202835	-0.64396963
2046	20.45000000	0.70492086	-0.30136033	0.36201135	0.49940885	0.16669516	-0.20449540	-0.01884391	-0.17268351	-0.56726939	0.25520712	0.02445517	-0.82605628	-0.68021191	-0.11693751	-1.97171525	0.43146064	0.54350816	-1.46651952	0.03083275	-0.09967568	-0.15894593	-0.16899319	1.58302832	-0.88380885
2047	20.46000000	0.67297716	-0.29715265	0.35077986	0.42339801	0.17695436	-0.17151085	-0.04373942	-0.18801713	-0.56945818	0.22206883	0.02913689	-0.81906642	-0.79563322	-0.09527936	-2.09335067	0.39846089	0.52968759	-1.43703067	0.02872339	-0.08878690	-0.16099265	-0.09438610	1.59309490	-1.10164296
